<?xml version="1.0" standalone="no"?>
<!DOCTYPE svg PUBLIC "-//W3C//DTD SVG 20010904//EN"
 "http://www.w3.org/TR/2001/REC-SVG-20010904/DTD/svg10.dtd">
<svg version="1.0" xmlns="http://www.w3.org/2000/svg"
 width="736.000000pt" height="736.000000pt" viewBox="0 0 736.000000 736.000000"
 preserveAspectRatio="xMidYMid meet">

<g transform="translate(0.000000,736.000000) scale(0.100000,-0.100000)"
fill="#000000" stroke="none">
<path d="M4170 5850 c-178 -42 -322 -146 -452 -327 -103 -142 -241 -447 -291
-637 -18 -73 -25 -86 -42 -86 -12 0 -71 31 -132 70 -206 128 -310 172 -533
227 -155 38 -322 37 -439 -1 -285 -94 -426 -287 -477 -655 -14 -105 -14 -119
1 -190 33 -148 145 -339 281 -475 32 -33 110 -93 171 -134 62 -40 113 -79 113
-86 0 -8 -39 -37 -87 -67 -231 -140 -418 -293 -531 -434 -235 -295 -313 -437
-358 -645 -49 -231 8 -441 160 -592 123 -122 255 -210 365 -244 217 -67 485
-88 671 -52 106 20 257 104 457 255 72 54 304 277 374 358 51 59 309 295 323
295 6 0 50 -48 98 -107 118 -148 315 -345 432 -433 105 -77 296 -197 361 -225
198 -86 439 -117 614 -80 137 29 326 117 390 182 15 16 54 50 86 77 68 55 124
126 165 206 84 166 62 399 -61 647 -69 140 -121 200 -364 418 -180 162 -270
253 -260 264 6 5 48 24 94 41 193 71 459 249 562 377 63 77 69 87 90 143 54
143 25 333 -76 506 -36 61 -126 138 -211 180 l-74 37 -163 -6 c-167 -7 -309
-28 -481 -72 -93 -24 -146 -31 -146 -20 0 2 27 53 59 112 134 243 196 455 189
644 -3 97 -6 111 -38 173 -50 100 -182 226 -298 285 -24 12 -84 36 -135 52
-124 41 -281 48 -407 19z m-115 -1475 c229 -49 409 -212 486 -440 21 -60 24
-89 24 -205 -1 -116 -4 -144 -24 -199 -81 -221 -251 -377 -471 -432 -92 -23
-251 -16 -345 14 -201 66 -359 220 -426 417 -30 89 -37 258 -15 353 81 344
426 565 771 492z"/>
</g>
</svg>
