<svg xmlns="http://www.w3.org/2000/svg" width="2046.3px" height="578.59px" viewBox="0 0 2046.3 578.59" transform="rotate(0) scale(1, 1)"><path d="M1138.2,372.8a91.26,91.26,0,0,1-30.62,69.59,102.31,102.31,0,0,1-34.16,20,126.5,126.5,0,0,1-43,7.09,125,125,0,0,1-46.82-8.61,112.26,112.26,0,0,1-17.37-8.7l-53.65-91.61q-.59-6.85-.59-14.06h40.35a33,33,0,0,1,32.09,25.85q3.48,15.11,11.57,24.5,14.16,16.46,35.93,16.45,16.2,0,26.07-9.87t9.87-26.06q0-17.21-12.66-31.88t-45.54-29.86q-47.58-21.25-68.83-46.56a96.65,96.65,0,0,1-11.65-17.19,82.51,82.51,0,0,1-9.61-39,85.5,85.5,0,0,1,3-22.66A80.7,80.7,0,0,1,927.42,177a86.77,86.77,0,0,1,21.76-28.85,102,102,0,0,1,32.89-19,121.07,121.07,0,0,1,41.25-6.83,118,118,0,0,1,45.55,8.6,111.58,111.58,0,0,1,35.93,23.54,104.63,104.63,0,0,1,23.53,35.17,114.29,114.29,0,0,1,8.35,44h-41.75A32.26,32.26,0,0,1,1064,210a45.87,45.87,0,0,0-9-17.58q-11.9-13.9-33.15-13.91-14.68,0-24.54,8.85a28.4,28.4,0,0,0-9.87,22q0,13.66,13.92,25.3t44.79,24.8q48.57,20.25,70.34,47.32T1138.2,372.8Z" fill="#fff"/><path d="M1234.36,155.79V190.1h14a27.54,27.54,0,0,1,27.54,27.54v29.65h-41.5V382.42q0,15.18,4.81,22t16.44,6.83a53.35,53.35,0,0,0,7.59-.5c2.36-.33,4.56-.67,6.58-1a39.75,39.75,0,0,0,6.08-1.52v55.16a57.36,57.36,0,0,1-9.62,2.53q-10.12,2.54-29.35,2.53-32.91,0-50.61-16.95t-17.71-45.8V247.29h-14A10.33,10.33,0,0,1,1144.27,237V190.1h24.3V134.43H1213A21.36,21.36,0,0,1,1234.36,155.79Z" fill="#fff"/><path d="M1438.17,463.39a8.68,8.68,0,0,1-8.45-6.5l0-.08q-1-4.05-2.28-9.36a127.79,127.79,0,0,1-2.27-13.41,75.59,75.59,0,0,1-28.34,23.53,84.64,84.64,0,0,1-37.46,8.35,72.3,72.3,0,0,1-29.1-5.82A70.31,70.31,0,0,1,1307,443.91a74.91,74.91,0,0,1-15.43-24.55,83.5,83.5,0,0,1-5.57-30.87q0-41,33.4-66.8,29.54-22.83,88.35-34.57a19.23,19.23,0,0,0,15.41-19.91V267a60.92,60.92,0,0,0-3.29-17,29.27,29.27,0,0,0-8.85-12.9q-6.07-5.05-17.21-5.06a28,28,0,0,0-13.92,3.54,39.4,39.4,0,0,0-11.13,9.36,44.62,44.62,0,0,0-7.59,13.67l-.06.15a24.08,24.08,0,0,1-22.65,16.3h-45.87q0-41.5,27.84-65.8T1396.3,185q46,0,69.84,25.05t23.79,73.64v133.1a145.54,145.54,0,0,0,1.26,20.5,150.91,150.91,0,0,0,2.78,14.93,100.73,100.73,0,0,0,4,11.13Zm-14-118.77A14.36,14.36,0,0,0,1405.31,331q-23.05,7.55-36.09,18.57-18,15.18-18,34.41,0,14.18,9.11,23.54t23.28,9.36A40.2,40.2,0,0,0,1411.73,406q11.89-10.87,12.4-28.59Z" fill="#fff"/><path d="M1508.14,326.75q0-31.38,8.1-57.44t22.52-44.79a99.75,99.75,0,0,1,34.67-28.85,97,97,0,0,1,44-10.12,100.8,100.8,0,0,1,43.27,9.36,109.73,109.73,0,0,1,34.92,25.81,122.93,122.93,0,0,1,23.53,38.72A147.72,147.72,0,0,1,1728.8,307h-36.32A35.9,35.9,0,0,1,1658,280.69a2.33,2.33,0,0,0-.07-.25,85.51,85.51,0,0,0-9.36-21.76A49.35,49.35,0,0,0,1635.17,244a27.75,27.75,0,0,0-16.19-5.31,28.52,28.52,0,0,0-18,6.58q-8.35,6.58-14.42,18.22a105.46,105.46,0,0,0-9.37,27.83,192.36,192.36,0,0,0,0,70.85,105.41,105.41,0,0,0,9.37,27.84q6.06,11.64,14.17,18.22a27.44,27.44,0,0,0,17.71,6.58,27.76,27.76,0,0,0,16.19-5.32,50.4,50.4,0,0,0,13.42-14.42,88.43,88.43,0,0,0,9.61-21.26l.08-.24a36.77,36.77,0,0,1,35.06-26.07h36a145.3,145.3,0,0,1-9.62,47.32A120.57,120.57,0,0,1,1695.65,433,112.06,112.06,0,0,1,1661,458.58a99.13,99.13,0,0,1-43,9.37,95.18,95.18,0,0,1-44-10.38A106,106,0,0,1,1539,428.72q-14.68-18.47-22.77-44.53T1508.14,326.75Z" fill="#fff"/><path d="M1744,109.13h39.55a26.24,26.24,0,0,1,26.24,26.24V300.43l54.4-85.94a52.44,52.44,0,0,1,44.3-24.39H1957l-84.52,125.51,86.54,147.78h-52.17a42.73,42.73,0,0,1-37.43-22.12l-59.69-108.45v104.6a26,26,0,0,1-26,26H1744Z" fill="#fff"/><path d="M45.49,124.31h91.6q26.82,0,49.09,6.58t38,18.47A83.85,83.85,0,0,1,248.43,178,79.52,79.52,0,0,1,257,214.9q0,24.81-11.64,43.78T212.5,289.3q25.8,11.64,40,31.88t14.17,47.07a83.92,83.92,0,0,1-9.11,39,86.49,86.49,0,0,1-25.81,30.12q-16.71,12.41-40,19.23t-51.62,6.83H45.49ZM115.33,266q12.14,0,24.8-.76a78.3,78.3,0,0,0,23.27-4.81,37.62,37.62,0,0,0,17.21-12.91q6.57-8.85,6.58-25,0-19.23-13.41-30.11T133.55,181.5H115.33Zm0,140.18H138.1q28.85,0,43.52-11.89t14.68-33.15q0-20.75-14.17-32.64t-45.55-11.9H115.33Z" fill="#fff"/><path d="M485.78,463.39H448.33A28.34,28.34,0,0,1,420,435.05h0a65.57,65.57,0,0,1-25.56,24.8q-15.94,8.59-36.69,8.6-34.92,0-55.42-22t-20.49-60V190.1h65.79V372.29q0,45.06,33.4,45,18.72,0,28.85-15.19t10.12-44v-167a1,1,0,0,1,1-1h64.77Z" fill="#fff"/><path d="M505,326.75q0-31.38,8.09-57.44t22.52-44.79a99.75,99.75,0,0,1,34.67-28.85,97,97,0,0,1,44-10.12,100.77,100.77,0,0,1,43.27,9.36,109.51,109.51,0,0,1,34.92,25.81,123.14,123.14,0,0,1,23.54,38.72A147.71,147.71,0,0,1,725.66,307H689.34a35.89,35.89,0,0,1-34.46-26.32l-.07-.25a86.22,86.22,0,0,0-9.36-21.76A49.38,49.38,0,0,0,632,244a27.75,27.75,0,0,0-16.19-5.31,28.54,28.54,0,0,0-18,6.58q-8.34,6.58-14.42,18.22a105.47,105.47,0,0,0-9.36,27.83,192.36,192.36,0,0,0,0,70.85A105.42,105.42,0,0,0,583.45,390q6.07,11.64,14.17,18.22a27.44,27.44,0,0,0,17.71,6.58,27.77,27.77,0,0,0,16.2-5.32,50.37,50.37,0,0,0,13.41-14.42,88.06,88.06,0,0,0,9.62-21.26c0-.08.05-.16.07-.24A36.78,36.78,0,0,1,689.7,347.5h36a145.29,145.29,0,0,1-9.61,47.32A120.78,120.78,0,0,1,692.51,433a112,112,0,0,1-34.66,25.55,99.16,99.16,0,0,1-43,9.37,95.16,95.16,0,0,1-44-10.38,105.79,105.79,0,0,1-34.92-28.85q-14.68-18.47-22.78-44.53T505,326.75Z" fill="#fff"/><path d="M955.93,463.39H900.84a37.82,37.82,0,0,1-33.12-19.57l-61.09-111V448a15.41,15.41,0,0,1-15.41,15.41H740.84V109.13h36.32a29.46,29.46,0,0,1,29.47,29.47V300.43L858.85,218a59.85,59.85,0,0,1,46.81-27.73,85.5,85.5,0,0,0-3,22.66,82.51,82.51,0,0,0,9.61,39l-42.92,63.75,26.31,44.93,53.65,91.61Z" fill="#fff"/></svg>