<svg xmlns="http://www.w3.org/2000/svg" width="1520px" height="541.33px" viewBox="0 0 1520 541.33" transform="rotate(0) scale(1, 1)"><path d="M122.46,416.74V367.39H31.74v49.35H4.16V293H31.74v50.45h90.72V293h27.4V416.74Z" fill="#ffffff"/><path d="M233.87,416.74V358.32L161.29,293h37.2l49.9,44.1,50.8-44.1h35.2l-72.94,65.69v58.06Z" fill="#ffffff"/><path d="M373.59,381.36v35.38H346V293h99.07a98.82,98.82,0,0,1,22.13,2.09,32.39,32.39,0,0,1,14.34,6.9,26,26,0,0,1,7.71,12.43,65.6,65.6,0,0,1,2.27,18.5v10.71q0,11.07-2.18,18.32a23.11,23.11,0,0,1-7.53,11.62q-5.35,4.35-14.24,6.08a121.48,121.48,0,0,1-22.5,1.72ZM464,334q0-10-4.27-13.61t-15.33-3.63H373.59V359h71.12q10.89,0,15.07-3.35T464,342.53Z" fill="#ffffff"/><path d="M555,416.74q-13.6,0-22.68-2.27t-14.51-7.25a27.23,27.23,0,0,1-7.71-13.07,74.15,74.15,0,0,1-2.27-19.87V335.45a74.34,74.34,0,0,1,2.27-19.77,27.24,27.24,0,0,1,7.71-13.16q5.45-5,14.51-7.26T555,293h30.49V316.4H555a39.87,39.87,0,0,0-9.79,1,13.54,13.54,0,0,0-6.08,3.17,11.27,11.27,0,0,0-3.09,5.81,42.55,42.55,0,0,0-.81,9.07v8.35H640.68v22H535.26v8.71a43.6,43.6,0,0,0,.81,9.25,11.62,11.62,0,0,0,3,5.81,11.79,11.79,0,0,0,6.07,3,49.88,49.88,0,0,0,9.89.82H641.4v23.4Z" fill="#ffffff"/><path d="M758.8,416.74l-72.4-45v45H659V293h96.9a130.49,130.49,0,0,1,22.32,1.64,37.26,37.26,0,0,1,15.15,5.8A23.91,23.91,0,0,1,802,311.86q2.73,7.26,2.73,18.33v8.53q0,10.71-2.91,17.69a24.15,24.15,0,0,1-9,11.07,39.44,39.44,0,0,1-15.33,5.71,128,128,0,0,1-22,1.64H733.76l72.58,41.91Zm18.33-85.1a24.6,24.6,0,0,0-1.09-8,9,9,0,0,0-3.63-4.72,17,17,0,0,0-7.08-2.18,97.61,97.61,0,0,0-11.25-.54H686.4V354h67.68a95.2,95.2,0,0,0,11.16-.54,17.61,17.61,0,0,0,7.08-2.18,8.85,8.85,0,0,0,3.72-4.72,25.25,25.25,0,0,0,1.09-8.16Z" fill="#ffffff"/><path d="M929.54,327.83l-37.92,79.84a23.37,23.37,0,0,1-6.8,8.53,17.26,17.26,0,0,1-10.8,3.26c-4.48,0-8-1.08-10.53-3.26a22.13,22.13,0,0,1-6-8.53L809.42,293h30.67l36.29,89.46,36.83-81.11q2.73-6.16,6.35-8.62t10.35-2.45q6.71,0,10.52,2.45t6.35,8.62l35.38,81.11L1019.72,293h30.12q-2.17,4.72-6.17,13.79L1034.78,327q-4.89,11.16-10.34,23.4T1014,373.83q-5,11.16-8.89,20.14t-5.9,13.7a22.89,22.89,0,0,1-6.35,8.53,15.23,15.23,0,0,1-10,3.26,17.23,17.23,0,0,1-10.71-3.17,22.56,22.56,0,0,1-6.71-8.62Z" fill="#ffffff"/><path d="M1158.35,388.26H1072.7l-17.6,28.48h-31.75l71.85-114.31a31.92,31.92,0,0,1,7.81-8.71q4.53-3.45,13.06-3.45,8.34,0,12.88,3.45a31.92,31.92,0,0,1,7.81,8.71l71.49,114.31h-31.94ZM1085.59,367h59.88l-29.94-48.81Z" fill="#ffffff"/><path d="M1320,416.74l-72.4-45v45h-27.4V293h96.89a130.49,130.49,0,0,1,22.32,1.64q9.25,1.64,15.15,5.8a23.93,23.93,0,0,1,8.62,11.43q2.73,7.26,2.72,18.33v8.53q0,10.71-2.9,17.69a24.15,24.15,0,0,1-9,11.07,39.44,39.44,0,0,1-15.33,5.71,128,128,0,0,1-22,1.64H1295l72.58,41.91Zm18.32-85.1a24.63,24.63,0,0,0-1.08-8,9,9,0,0,0-3.63-4.72,17,17,0,0,0-7.08-2.18,97.85,97.85,0,0,0-11.25-.54h-67.68V354h67.68a95.44,95.44,0,0,0,11.16-.54,17.61,17.61,0,0,0,7.08-2.18,8.85,8.85,0,0,0,3.72-4.72,25.28,25.28,0,0,0,1.08-8.16Z" fill="#ffffff"/><path d="M1429.25,416.74q-13.61,0-22.68-2.27t-14.52-7.25a27.23,27.23,0,0,1-7.71-13.07,74.56,74.56,0,0,1-2.27-19.87V335.45a74.75,74.75,0,0,1,2.27-19.77,27.24,27.24,0,0,1,7.71-13.16q5.45-5,14.52-7.26t22.68-2.27h30.48V316.4h-30.48a40,40,0,0,0-9.8,1,13.59,13.59,0,0,0-6.08,3.17,11.25,11.25,0,0,0-3.08,5.81,41.84,41.84,0,0,0-.82,9.07v8.35h105.42v22H1409.47v8.71a42.87,42.87,0,0,0,.82,9.25,11.61,11.61,0,0,0,3,5.81,11.83,11.83,0,0,0,6.08,3,49.88,49.88,0,0,0,9.89.82h86.37v23.4Z" fill="#ffffff"/><path d="M349.36,518.08a38.74,38.74,0,0,1-1,9.4,11.46,11.46,0,0,1-3.83,6.19,17.71,17.71,0,0,1-7.79,3.41,64.13,64.13,0,0,1-12.88,1H259V521.84h62.23c2.78,0,4.73-.47,5.84-1.39s1.67-2.7,1.67-5.29v-2.51q0-4.17-1.6-5.22c-1.06-.7-2.85-1-5.36-1H279.47a35.12,35.12,0,0,1-10.37-1.26,13.45,13.45,0,0,1-6.19-3.76,13.08,13.08,0,0,1-3-6.19,43.37,43.37,0,0,1-.76-8.7v-5.71a29.5,29.5,0,0,1,1-8.35,12.2,12.2,0,0,1,3.41-5.64,14.28,14.28,0,0,1,6.41-3.13,44.17,44.17,0,0,1,10.16-1h28.68V478.4H285.18a6.82,6.82,0,0,0-4.38,1.12c-.89.74-1.33,2.09-1.33,4V487q0,3.21,1.26,4.32a6,6,0,0,0,4,1.11h40.93a48.56,48.56,0,0,1,11.83,1.19,15.72,15.72,0,0,1,7.24,3.76,13.3,13.3,0,0,1,3.62,6.68,44.42,44.42,0,0,1,1,10.09Z" fill="#ffffff"/><path d="M426.62,538.13a73.2,73.2,0,0,1-17.4-1.74,25.27,25.27,0,0,1-11.14-5.57,20.87,20.87,0,0,1-5.91-10,56.67,56.67,0,0,1-1.75-15.24V495.39a57.61,57.61,0,0,1,1.75-15.32A20.92,20.92,0,0,1,398.08,470a25.27,25.27,0,0,1,11.14-5.57,73.2,73.2,0,0,1,17.4-1.74h25.2a74,74,0,0,1,17.54,1.74,24.73,24.73,0,0,1,11.13,5.64,21.35,21.35,0,0,1,5.92,10.16,58,58,0,0,1,1.74,15.32v10a57.11,57.11,0,0,1-1.74,15.24,20.88,20.88,0,0,1-5.92,10,25.17,25.17,0,0,1-11.13,5.57,74,74,0,0,1-17.54,1.74Zm40.79-42.05a32.9,32.9,0,0,0-.77-7.79,9.11,9.11,0,0,0-2.78-4.81,11.63,11.63,0,0,0-5.64-2.36,55.19,55.19,0,0,0-9.19-.63H429.4a53.74,53.74,0,0,0-9.11.63,11.49,11.49,0,0,0-5.57,2.36,9.06,9.06,0,0,0-2.79,4.81,33,33,0,0,0-.76,7.79V505a32.13,32.13,0,0,0,.76,7.73,8.94,8.94,0,0,0,2.79,4.73,11.81,11.81,0,0,0,5.57,2.44,49.16,49.16,0,0,0,9.11.69H449a50.48,50.48,0,0,0,9.19-.69,12,12,0,0,0,5.64-2.44,9,9,0,0,0,2.78-4.73,32.07,32.07,0,0,0,.77-7.73Z" fill="#ffffff"/><path d="M531.72,538.13V438.31h21.16v99.82Z" fill="#ffffff"/><path d="M632.93,538.13a73.2,73.2,0,0,1-17.4-1.74,25.21,25.21,0,0,1-11.14-5.57,21,21,0,0,1-5.92-10,57.11,57.11,0,0,1-1.74-15.24V462.67h20.89V505a28.13,28.13,0,0,0,.9,7.87,9.54,9.54,0,0,0,2.85,4.66,11,11,0,0,0,5.22,2.3,43.18,43.18,0,0,0,8,.63h21.72a46.19,46.19,0,0,0,8.35-.63,10.6,10.6,0,0,0,5.22-2.3,9,9,0,0,0,2.64-4.66,32.82,32.82,0,0,0,.77-7.87V462.67h20.6v42.88a57.11,57.11,0,0,1-1.74,15.24,20.94,20.94,0,0,1-5.91,10A25.28,25.28,0,0,1,675,536.39a74.88,74.88,0,0,1-17.61,1.74Z" fill="#ffffff"/><path d="M742.07,538.13V479.52H731.49V462.67h10.58v-21.3h21.16v21.3H787v16.85H763.23v58.61Z" fill="#ffffff"/><path d="M832,458.36q-3.9,0-5.5-1.53T824.9,452v-8.07q0-3.35,1.6-4.8t5.5-1.47h6.82q4,0,5.64,1.47t1.6,4.8V452q0,3.35-1.6,4.88t-5.64,1.53Zm-7.1,79.77V464.62h21.16v73.51Z" fill="#ffffff"/><path d="M925.83,538.13a73.2,73.2,0,0,1-17.4-1.74,25.16,25.16,0,0,1-11.14-5.57,20.88,20.88,0,0,1-5.92-10,57.11,57.11,0,0,1-1.74-15.24V495.39a58.07,58.07,0,0,1,1.74-15.32A20.93,20.93,0,0,1,897.29,470a25.16,25.16,0,0,1,11.14-5.57,73.2,73.2,0,0,1,17.4-1.74H951a73.89,73.89,0,0,1,17.54,1.74,24.77,24.77,0,0,1,11.14,5.64,21.35,21.35,0,0,1,5.92,10.16,58,58,0,0,1,1.74,15.32v10a57.11,57.11,0,0,1-1.74,15.24,20.88,20.88,0,0,1-5.92,10,25.21,25.21,0,0,1-11.14,5.57A73.89,73.89,0,0,1,951,538.13Zm40.79-42.05a32.9,32.9,0,0,0-.77-7.79,9.11,9.11,0,0,0-2.78-4.81,11.63,11.63,0,0,0-5.64-2.36,55.27,55.27,0,0,0-9.19-.63H928.61a54,54,0,0,0-9.12.63,11.57,11.57,0,0,0-5.57,2.36,9.11,9.11,0,0,0-2.78,4.81,32.9,32.9,0,0,0-.77,7.79V505a32.07,32.07,0,0,0,.77,7.73,9,9,0,0,0,2.78,4.73,11.9,11.9,0,0,0,5.57,2.44,49.35,49.35,0,0,0,9.12.69h19.63a50.56,50.56,0,0,0,9.19-.69,12,12,0,0,0,5.64-2.44,9,9,0,0,0,2.78-4.73,32.07,32.07,0,0,0,.77-7.73Z" fill="#ffffff"/><path d="M1107.5,538.13V496.08a32,32,0,0,0-.77-7.72,9.52,9.52,0,0,0-2.64-4.74,10.68,10.68,0,0,0-5.15-2.43,40.53,40.53,0,0,0-8.29-.7H1068.1a39.49,39.49,0,0,0-8.14.7,11.08,11.08,0,0,0-5.22,2.43,9.25,9.25,0,0,0-2.72,4.74,32,32,0,0,0-.76,7.72v42.05h-20.75V495.39a58.07,58.07,0,0,1,1.74-15.32,21,21,0,0,1,5.92-10.09,25.21,25.21,0,0,1,11.14-5.57,73.2,73.2,0,0,1,17.4-1.74h25.2a74,74,0,0,1,17.54,1.74,25.17,25.17,0,0,1,11.13,5.57,20.93,20.93,0,0,1,5.92,10.09,58.07,58.07,0,0,1,1.74,15.32v42.74Z" fill="#ffffff"/><path d="M1260.77,518.08a38.74,38.74,0,0,1-1,9.4,11.5,11.5,0,0,1-3.82,6.19,17.8,17.8,0,0,1-7.8,3.41,64.13,64.13,0,0,1-12.88,1h-64.87V521.84h62.23c2.78,0,4.73-.47,5.84-1.39s1.67-2.7,1.67-5.29v-2.51q0-4.17-1.6-5.22c-1.06-.7-2.85-1-5.36-1h-42.32a35.12,35.12,0,0,1-10.37-1.26,13.45,13.45,0,0,1-6.19-3.76,13,13,0,0,1-3-6.19,42.59,42.59,0,0,1-.77-8.7v-5.71a29.5,29.5,0,0,1,1-8.35,12.28,12.28,0,0,1,3.41-5.64,14.33,14.33,0,0,1,6.41-3.13,44.23,44.23,0,0,1,10.16-1h28.68V478.4h-23.67a6.82,6.82,0,0,0-4.38,1.12c-.89.74-1.33,2.09-1.33,4V487q0,3.21,1.26,4.32a6,6,0,0,0,4,1.11h40.93a48.7,48.7,0,0,1,11.84,1.19,15.74,15.74,0,0,1,7.23,3.76,13.3,13.3,0,0,1,3.62,6.68,44.42,44.42,0,0,1,1,10.09Z" fill="#ffffff"/><rect x="409.9" y="10.5" width="49.16" height="220.6" fill="#ffffff"/><polygon points="620.78 71.03 620.78 100.42 476.79 100.42 476.79 143.12 620.78 143.12 620.78 231.1 669.63 231.1 669.63 71.03 620.78 71.03" fill="#ffffff"/><path d="M944,66.2,926.16,25.39q-4.53-11-11.32-15.37T896.08,5.65q-12,0-18.44,4.37T866.32,25.39L800.66,170,736,10.5H681.31L767,214.92a39.39,39.39,0,0,0,10.68,15.21q6.78,5.82,18.76,5.82,11.64,0,19.24-5.82a41.35,41.35,0,0,0,12.13-15.21l67.6-142.31,64.05,142.31a40.11,40.11,0,0,0,12,15.37q7.44,5.66,19.09,5.66,10.66,0,17.79-5.82a37.71,37.71,0,0,0,4.89-4.82Z" fill="#ffffff"/><path d="M1056.19,10.5l-56,133.24,25,58.22q2.22-5.15,5-11.46,7-16,15.85-35.9t18.6-41.72Q1074.3,91,1083,71.15l15.85-36.06q7.13-16.17,11-24.59Z" fill="#ffffff"/><polygon points="741.44 53.75 621.17 53.75 621.17 10.51 717.73 10.51 741.44 53.75" fill="#ffffff"/></svg>