<?xml version="1.0" encoding="utf-8"?>
<!-- Generator: Adobe Illustrator 26.0.3, SVG Export Plug-In . SVG Version: 6.00 Build 0)  -->
<svg version="1.1" id="Livello_1" xmlns="http://www.w3.org/2000/svg" xmlns:xlink="http://www.w3.org/1999/xlink" x="0px" y="0px"
	 viewBox="0 0 1511.5 532.5" style="enable-background:new 0 0 1511.5 532.5;" xml:space="preserve">
<style type="text/css">
	.st0{fill:#0992D1;}
	.st1{fill:#BFBFBF;}
</style>
<path class="st0" d="M118.3,411.1v-49.3H27.6v49.3H0V287.3h27.6v50.4h90.7v-50.4h27.4v123.7H118.3z"/>
<path class="st0" d="M229.7,411.1v-58.4l-72.6-65.3h37.2l49.9,44.1l50.8-44.1h35.2l-73,65.7v58.1H229.7z"/>
<path class="st0" d="M369.4,375.7v35.4h-27.6V287.3h99.1c7.4-0.1,14.9,0.6,22.1,2.1c5.3,1.1,10.2,3.4,14.3,6.9
	c3.7,3.3,6.4,7.6,7.7,12.4c1.6,6,2.4,12.3,2.3,18.5V338c0.1,6.2-0.6,12.4-2.2,18.3c-1.3,4.6-3.9,8.6-7.5,11.6
	c-3.6,2.9-8.3,4.9-14.2,6.1c-7.4,1.3-15,1.8-22.5,1.7L369.4,375.7z M459.8,328.3c0-6.7-1.4-11.2-4.3-13.6c-2.8-2.4-8-3.6-15.3-3.6
	h-70.8v42.3h71.1c7.3,0,12.3-1.1,15.1-3.3s4.2-6.6,4.2-13.2V328.3z"/>
<path class="st0" d="M550.9,411.1c-9.1,0-16.6-0.8-22.7-2.3c-6-1.5-10.9-3.9-14.5-7.3c-3.8-3.5-6.4-8.1-7.7-13.1
	c-1.7-6.5-2.4-13.2-2.3-19.9v-38.8c-0.1-6.7,0.6-13.3,2.3-19.8c1.3-5,3.9-9.6,7.7-13.2c3.6-3.3,8.5-5.8,14.5-7.3
	c6-1.5,13.6-2.3,22.7-2.3h30.5v23.4h-30.5c-3.3-0.1-6.6,0.3-9.8,1c-2.3,0.5-4.4,1.6-6.1,3.2c-1.6,1.6-2.7,3.6-3.1,5.8
	c-0.6,3-0.9,6-0.8,9.1v8.3h105.4v22H531.1v8.7c-0.1,3.1,0.2,6.2,0.8,9.2c0.8,4.6,4.4,8.2,9.1,8.8c3.3,0.6,6.6,0.9,9.9,0.8h86.4v23.4
	L550.9,411.1z"/>
<path class="st0" d="M754.6,411.1l-72.4-45v45h-27.4V287.3h96.9c7.5-0.1,14.9,0.4,22.3,1.6c6.2,1.1,11.2,3,15.2,5.8
	c4,2.9,7,6.8,8.6,11.5c1.8,4.8,2.7,10.9,2.7,18.3v8.5c0,7.1-1,13-2.9,17.7c-1.8,4.5-5,8.4-9,11.1c-4.7,3-9.9,4.9-15.3,5.7
	c-7.3,1.2-14.6,1.7-21.9,1.6h-21.8l72.6,41.9L754.6,411.1z M773,326c0.1-2.7-0.3-5.4-1.1-8c-0.6-1.9-1.9-3.6-3.6-4.7
	c-2.2-1.2-4.6-2-7.1-2.2c-3.7-0.4-7.5-0.6-11.2-0.5h-67.7v37.7h67.7c3.7,0,7.5-0.1,11.2-0.5c2.5-0.2,4.9-1,7.1-2.2
	c1.8-1.1,3.1-2.8,3.7-4.7c0.8-2.6,1.2-5.4,1.1-8.2V326z"/>
<path class="st0" d="M925.4,322.2L887.5,402c-1.6,3.3-3.9,6.3-6.8,8.5c-3.1,2.3-6.9,3.4-10.8,3.3c-4.5,0-8-1.1-10.5-3.3
	c-2.7-2.3-4.7-5.2-6-8.5l-48.1-114.7h30.7l36.3,89.5l36.8-81.1c1.8-4.1,3.9-7,6.3-8.6s5.9-2.5,10.3-2.5c4.5,0,8,0.8,10.5,2.5
	c2.5,1.6,4.7,4.5,6.3,8.6l35.4,81.1l37.6-89.5h30.2c-1.4,3.1-3.5,7.7-6.2,13.8c-2.7,6.1-5.6,12.8-8.9,20.2
	c-3.3,7.4-6.7,15.2-10.3,23.4s-7.1,16-10.4,23.4c-3.3,7.4-6.3,14.2-8.9,20.1c-2.6,6-4.6,10.6-5.9,13.7c-1.4,3.3-3.6,6.2-6.3,8.5
	c-2.8,2.2-6.4,3.4-10,3.3c-3.8,0.2-7.6-1-10.7-3.2c-2.9-2.3-5.2-5.2-6.7-8.6L925.4,322.2z"/>
<path class="st0" d="M1154.2,382.6h-85.6l-17.6,28.5h-31.8l71.9-114.3c2-3.4,4.7-6.3,7.8-8.7c3-2.3,7.4-3.5,13.1-3.5
	c5.6,0,9.9,1.2,12.9,3.5c3.1,2.4,5.8,5.4,7.8,8.7l71.5,114.3h-31.9L1154.2,382.6z M1081.4,361.4h59.9l-29.9-48.8L1081.4,361.4z"/>
<path class="st0" d="M1315.9,411.1l-72.4-45v45h-27.4V287.3h96.9c7.5-0.1,14.9,0.4,22.3,1.6c6.2,1.1,11.2,3,15.2,5.8
	c4,2.8,7,6.8,8.6,11.4c1.8,4.8,2.7,10.9,2.7,18.3v8.5c0,7.1-1,13-2.9,17.7c-1.8,4.5-5,8.4-9,11.1c-4.7,3-9.9,4.9-15.3,5.7
	c-7.3,1.2-14.6,1.7-22,1.6h-21.8l72.6,41.9H1315.9z M1334.2,326c0.1-2.7-0.3-5.4-1.1-8c-0.6-1.9-1.9-3.6-3.6-4.7
	c-2.2-1.2-4.6-2-7.1-2.2c-3.7-0.4-7.5-0.6-11.2-0.5h-67.7v37.7h67.7c3.7,0,7.5-0.1,11.2-0.5c2.5-0.2,4.9-1,7.1-2.2
	c1.8-1.1,3.1-2.8,3.7-4.7c0.8-2.6,1.2-5.4,1.1-8.2V326z"/>
<path class="st0" d="M1425.1,411.1c-9.1,0-16.6-0.8-22.7-2.3c-6.1-1.5-10.9-3.9-14.5-7.3c-3.8-3.5-6.4-8.1-7.7-13.1
	c-1.6-6.5-2.4-13.2-2.3-19.9v-38.8c-0.1-6.7,0.6-13.3,2.3-19.8c1.3-5,3.9-9.6,7.7-13.2c3.6-3.3,8.5-5.8,14.5-7.3
	c6.1-1.5,13.6-2.3,22.7-2.3h30.5v23.4h-30.5c-3.3-0.1-6.6,0.3-9.8,1c-2.3,0.5-4.4,1.6-6.1,3.2c-1.6,1.6-2.7,3.6-3.1,5.8
	c-0.6,3-0.9,6-0.8,9.1v8.3h105.4v22h-105.4v8.7c-0.1,3.1,0.2,6.2,0.8,9.2c0.4,2.2,1.5,4.2,3,5.8c1.7,1.6,3.8,2.6,6.1,3
	c3.3,0.6,6.6,0.9,9.9,0.8h86.4v23.4L1425.1,411.1z"/>
<path class="st1" d="M345.2,512.4c0.1,3.2-0.3,6.3-1,9.4c-0.6,2.4-1.9,4.6-3.8,6.2c-2.3,1.8-5,2.9-7.8,3.4c-4.2,0.8-8.6,1.1-12.9,1
	h-64.8v-16.2h62.2c2.8,0,4.7-0.5,5.8-1.4c1.1-0.9,1.7-2.7,1.7-5.3V507c0-2.8-0.5-4.5-1.6-5.2c-1.1-0.7-2.8-1-5.4-1h-42.3
	c-3.5,0.1-7-0.3-10.4-1.3c-2.4-0.7-4.5-2-6.2-3.8c-1.5-1.8-2.6-3.9-3-6.2c-0.6-2.9-0.8-5.8-0.8-8.7v-5.7c-0.1-2.8,0.3-5.6,1-8.3
	c0.6-2.2,1.8-4.1,3.4-5.6c1.8-1.6,4-2.6,6.4-3.1c3.3-0.7,6.7-1.1,10.2-1h28.8v15.7H281c-1.5-0.1-3.1,0.3-4.4,1.1
	c-0.9,0.7-1.3,2.1-1.3,4v3.5c0,2.1,0.4,3.6,1.3,4.3c1.2,0.8,2.6,1.2,4,1.1h41c4-0.1,8,0.3,11.8,1.2c2.7,0.6,5.2,1.9,7.2,3.8
	c1.8,1.8,3.1,4.1,3.6,6.7c0.7,3.3,1.1,6.7,1,10.1L345.2,512.4z"/>
<path class="st1" d="M422.5,532.5c-5.8,0.1-11.7-0.5-17.4-1.7c-4.1-0.9-7.9-2.8-11.1-5.6c-2.9-2.7-4.9-6.2-5.9-10
	c-1.3-5-1.9-10.1-1.7-15.2v-10.2c-0.1-5.2,0.5-10.3,1.7-15.3c1-3.9,3-7.4,5.9-10.1c3.2-2.8,7-4.7,11.1-5.6
	c5.7-1.3,11.6-1.9,17.4-1.7h25.2c5.9-0.1,11.8,0.5,17.5,1.7c4.1,0.9,8,2.8,11.1,5.6c2.9,2.8,4.9,6.3,5.9,10.2
	c1.3,5,1.8,10.2,1.7,15.3v10c0.1,5.1-0.5,10.3-1.7,15.2c-1,3.8-3,7.3-5.9,10c-3.2,2.8-7,4.7-11.1,5.6c-5.8,1.3-11.6,1.9-17.5,1.7
	L422.5,532.5z M463.2,490.5c0.1-2.6-0.2-5.2-0.8-7.8c-0.4-1.9-1.4-3.5-2.8-4.8c-1.6-1.3-3.6-2.1-5.6-2.4c-3-0.5-6.1-0.7-9.2-0.6
	h-19.6c-3.1,0-6.1,0.2-9.1,0.6c-2,0.3-4,1.1-5.6,2.4c-1.4,1.3-2.4,2.9-2.8,4.8c-0.6,2.6-0.8,5.2-0.8,7.8v8.9
	c-0.1,2.6,0.2,5.2,0.8,7.7c0.4,1.8,1.4,3.5,2.8,4.7c1.6,1.3,3.5,2.1,5.6,2.4c3,0.5,6.1,0.8,9.1,0.7h19.6c3.1,0.1,6.2-0.2,9.2-0.7
	c2.1-0.3,4-1.1,5.6-2.4c1.4-1.2,2.4-2.9,2.8-4.7c0.6-2.5,0.8-5.1,0.8-7.7L463.2,490.5z"/>
<path class="st1" d="M527.6,532.5v-99.8h21.2v99.8H527.6z"/>
<path class="st1" d="M628.7,532.5c-5.8,0.1-11.7-0.5-17.4-1.7c-4.1-0.9-7.9-2.8-11.1-5.6c-2.9-2.7-4.9-6.2-5.9-10
	c-1.3-5-1.9-10.1-1.7-15.2V457h20.9v42.3c-0.1,2.7,0.2,5.3,0.9,7.9c0.5,1.8,1.5,3.4,2.9,4.7c1.5,1.2,3.3,2,5.2,2.3
	c2.6,0.5,5.3,0.7,8,0.6h21.7c2.8,0,5.6-0.2,8.3-0.6c1.9-0.3,3.7-1.1,5.2-2.3c1.3-1.3,2.3-2.9,2.7-4.7c0.6-2.6,0.8-5.2,0.8-7.9V457
	h20.6v42.9c0.1,5.1-0.5,10.3-1.7,15.2c-1,3.8-3,7.3-5.9,10c-3.2,2.8-7.1,4.7-11.2,5.6c-5.8,1.3-11.7,1.9-17.6,1.7L628.7,532.5z"/>
<path class="st1" d="M737.9,532.5v-58.6h-10.6V457h10.6v-21.3h21.2V457h23.8v16.8h-23.8v58.6H737.9z"/>
<path class="st1" d="M827.8,452.7c-2.6,0-4.4-0.5-5.5-1.5s-1.6-2.6-1.6-4.9v-8.1c0-2.2,0.5-3.8,1.6-4.8c1.1-1,2.9-1.5,5.5-1.5h6.8
	c2.7,0,4.6,0.5,5.6,1.5s1.6,2.6,1.6,4.8v8.1c0,2.2-0.5,3.9-1.6,4.9s-2.9,1.5-5.6,1.5L827.8,452.7z M820.7,532.5V459h21.2v73.5H820.7
	z"/>
<path class="st1" d="M921.7,532.5c-5.8,0.1-11.7-0.5-17.4-1.7c-4.1-0.9-8-2.8-11.1-5.6c-2.9-2.7-4.9-6.2-5.9-10
	c-1.3-5-1.8-10.1-1.7-15.2v-10.2c-0.1-5.2,0.5-10.3,1.7-15.3c1-3.9,3-7.4,5.9-10.1c3.2-2.8,7-4.7,11.1-5.6
	c5.7-1.3,11.6-1.9,17.4-1.7h25.2c5.9-0.1,11.8,0.5,17.5,1.7c4.1,0.9,8,2.8,11.1,5.6c2.9,2.8,4.9,6.3,5.9,10.2
	c1.3,5,1.8,10.2,1.7,15.3v10c0.1,5.1-0.5,10.3-1.7,15.2c-1,3.8-3,7.3-5.9,10c-3.2,2.8-7,4.7-11.1,5.6c-5.8,1.3-11.6,1.9-17.5,1.7
	L921.7,532.5z M962.5,490.5c0.1-2.6-0.2-5.2-0.8-7.8c-0.4-1.9-1.4-3.5-2.8-4.8c-1.6-1.3-3.6-2.1-5.6-2.4c-3-0.5-6.1-0.7-9.2-0.6
	h-19.6c-3.1,0-6.1,0.2-9.1,0.6c-2,0.3-4,1.1-5.6,2.4c-1.4,1.3-2.4,2.9-2.8,4.8c-0.6,2.6-0.8,5.2-0.8,7.8v8.9
	c-0.1,2.6,0.2,5.2,0.8,7.7c0.4,1.8,1.4,3.5,2.8,4.7c1.6,1.3,3.5,2.1,5.6,2.4c3,0.5,6.1,0.8,9.1,0.7h19.6c3.1,0.1,6.2-0.2,9.2-0.7
	c2.1-0.3,4-1.1,5.6-2.4c1.4-1.2,2.4-2.9,2.8-4.7c0.6-2.5,0.8-5.1,0.8-7.7V490.5z"/>
<path class="st1" d="M1103.3,532.5v-42c0.1-2.6-0.2-5.2-0.8-7.7c-0.4-1.8-1.3-3.4-2.6-4.7c-1.5-1.3-3.2-2.1-5.2-2.4
	c-2.7-0.5-5.5-0.7-8.3-0.7h-22.6c-2.7,0-5.5,0.2-8.1,0.7c-1.9,0.3-3.7,1.2-5.2,2.4c-1.4,1.3-2.3,2.9-2.7,4.7
	c-0.6,2.5-0.8,5.1-0.8,7.7v42h-20.8v-42.7c-0.1-5.2,0.5-10.3,1.7-15.3c1-3.9,3-7.4,5.9-10.1c3.2-2.8,7-4.7,11.1-5.6
	c5.7-1.3,11.6-1.9,17.4-1.7h25.2c5.9-0.1,11.8,0.5,17.5,1.7c4.1,0.9,7.9,2.8,11.1,5.6c2.9,2.7,4.9,6.2,5.9,10.1
	c1.3,5,1.8,10.2,1.7,15.3v42.7H1103.3z"/>
<path class="st1" d="M1256.6,512.4c0,3.2-0.3,6.3-1,9.4c-0.6,2.4-1.9,4.6-3.8,6.2c-2.3,1.8-5,2.9-7.8,3.4c-4.2,0.8-8.6,1.1-12.9,1
	h-64.9v-16.2h62.2c2.8,0,4.7-0.5,5.8-1.4c1.1-0.9,1.7-2.7,1.7-5.3V507c0-2.8-0.5-4.5-1.6-5.2s-2.9-1-5.4-1h-42.3
	c-3.5,0.1-7-0.3-10.4-1.3c-2.4-0.7-4.5-2-6.2-3.8c-1.5-1.8-2.6-3.9-3-6.2c-0.6-2.9-0.8-5.8-0.8-8.7v-5.7c-0.1-2.8,0.3-5.6,1-8.3
	c0.6-2.2,1.8-4.1,3.4-5.6c1.8-1.6,4-2.6,6.4-3.1c3.3-0.7,6.7-1.1,10.2-1h28.7v15.7h-23.6c-1.5-0.1-3.1,0.3-4.4,1.1
	c-0.9,0.7-1.3,2.1-1.3,4v3.5c0,2.1,0.4,3.6,1.2,4.3c1.2,0.8,2.6,1.2,4,1.1h40.9c4-0.1,8,0.3,11.8,1.2c2.7,0.6,5.2,1.9,7.2,3.8
	c1.8,1.8,3.1,4.2,3.6,6.7c0.7,3.3,1,6.7,1,10.1L1256.6,512.4z"/>
<rect x="405.7" y="4.8" class="st1" width="49.2" height="220.6"/>
<rect x="617" y="65.4" class="st0" width="48.4" height="160.1"/>
<path class="st1" d="M1052,4.8l-56,133.2l25,58.2c1.5-3.4,3.1-7.3,5-11.5c4.7-10.7,9.9-22.6,15.8-35.9c5.9-13.3,12.1-27.2,18.6-41.7
	c6.5-14.6,12.6-28.5,18.4-41.7l15.8-36.1c4.8-10.8,8.4-19,11-24.6L1052,4.8z"/>
<path class="st0" d="M1009,219.7c-1.5,1.8-3.1,3.4-4.9,4.8c-4.7,3.9-10.7,5.8-17.8,5.8c-7.8,0-14.1-1.9-19.1-5.7
	c-5.2-4.1-9.3-9.3-12-15.4L891.3,67l-67.6,142.3c-2.8,6-6.9,11.2-12.1,15.2c-5.1,3.9-11.5,5.8-19.2,5.8c-8,0-14.3-1.9-18.8-5.8
	c-4.7-4.1-8.4-9.4-10.7-15.2L695.3,48.1H617V4.9h114.8l64.7,159.5l65.7-144.6c3.2-7.3,7-12.5,11.3-15.4c4.3-2.9,10.5-4.4,18.4-4.4
	c8,0,14.3,1.5,18.8,4.4c4.5,2.9,8.3,8,11.3,15.4l17.8,40.8L1009,219.7z"/>
<rect x="472.3" y="105.4" class="st0" width="192.8" height="42.7"/>
</svg>
